<?xml version="1.0" encoding="utf-8"?>
<!-- Generator: Adobe Illustrator 16.0.0, SVG Export Plug-In . SVG Version: 6.00 Build 0)  -->
<!DOCTYPE svg PUBLIC "-//W3C//DTD SVG 1.1//EN" "http://www.w3.org/Graphics/SVG/1.1/DTD/svg11.dtd">
<svg version="1.1" id="Layer_1" xmlns="http://www.w3.org/2000/svg" xmlns:xlink="http://www.w3.org/1999/xlink" x="0px" y="0px"
	 width="23.4px" height="19.8px" viewBox="0 0 23.4 19.8" style="enable-background:new 0 0 23.4 19.8;" xml:space="preserve">
<style type="text/css">
<![CDATA[
	.st0{fill:#231F20;}
]]>
</style>
<g>
	<path class="st0" d="M21.9,0H1.5C0.7,0,0,0.7,0,1.5v16.8c0,0.8,0.7,1.5,1.5,1.5h20.5c0.8,0,1.5-0.7,1.5-1.5V1.5
		C23.4,0.7,22.8,0,21.9,0z M1.5,0.8h20.5c0.4,0,0.7,0.3,0.7,0.7v1.9H0.8V1.5C0.8,1.1,1.1,0.8,1.5,0.8z M21.9,19H1.5
		c-0.4,0-0.7-0.3-0.7-0.7V4.2h21.8v14.1C22.6,18.7,22.3,19,21.9,19z"/>
	<rect x="16.6" y="1.7" class="st0" width="1.2" height="0.8"/>
	<rect x="18.4" y="1.7" class="st0" width="1.2" height="0.8"/>
	<rect x="20.3" y="1.7" class="st0" width="1.2" height="0.8"/>
	<path class="st0" d="M3.3,8.5v5.7l5,2.9l5-2.9V8.5l-5-2.9L3.3,8.5z M12,8.7l-3.8,2.2L4.5,8.7l3.8-2.2L12,8.7z M4.1,9.4l3.8,2.2v4.4
		l-3.8-2.2V9.4z M8.7,15.9v-4.4l3.8-2.2v4.4L8.7,15.9z"/>
	<path class="st0" d="M20,12.4l-5.7-1.9l2.1,5.6l0.9-0.9l1.4,1.4l1.8-1.9l-1.4-1.4L20,12.4z M19.4,14.7l-0.7,0.7l-1.4-1.4l-0.5,0.6
		l-1.1-2.8l2.9,0.9l-0.5,0.6L19.4,14.7z"/>
</g>
</svg>
