<?xml version="1.0" encoding="utf-8"?>
<!-- Generator: Adobe Illustrator 16.0.0, SVG Export Plug-In . SVG Version: 6.00 Build 0)  -->
<!DOCTYPE svg PUBLIC "-//W3C//DTD SVG 1.1//EN" "http://www.w3.org/Graphics/SVG/1.1/DTD/svg11.dtd">
<svg version="1.1" id="Layer_1" xmlns="http://www.w3.org/2000/svg" xmlns:xlink="http://www.w3.org/1999/xlink" x="0px" y="0px"
	 width="23px" height="23.7px" viewBox="0 0 23 23.7" style="enable-background:new 0 0 23 23.7;" xml:space="preserve">
<style type="text/css">
<![CDATA[
	.st0{fill:#231F20;}
]]>
</style>
<g>
	<path class="st0" d="M23,5.4V4.6h-6.5V1.5C16.5,0.7,15.8,0,15,0H8C7.2,0,6.5,0.7,6.5,1.5v3.1H0v0.8h6.5v1.2H0v0.8h6.5v0.5
		c0,0.8,0.7,1.5,1.5,1.5H9l1.7,3.8h1.7L14,9.4H15c0.8,0,1.5-0.7,1.5-1.5V7.4H23V6.6h-6.5V5.4H23z M11.8,12.4h-0.7l-1.3-3h3.3
		L11.8,12.4z M15.7,7.9c0,0.4-0.3,0.7-0.7,0.7H8c-0.4,0-0.7-0.3-0.7-0.7V1.5c0-0.4,0.3-0.7,0.7-0.7h7c0.4,0,0.7,0.3,0.7,0.7V7.9z"/>
	<path class="st0" d="M15,16.6h-3c-0.1,0-0.1,0-0.1,0c0,0,0,0,0-0.1v-2.6h-0.8v2.6c0,0.4,0.2,0.9,0.9,0.9h3c0.4,0,1.3,0.5,1.3,1.5
		v2.5c0,1-0.9,1.5-1.3,1.5h-2.4v-4.8h-0.8v5.6H15c0.9,0,2.1-0.9,2.1-2.3v-2.5C17.1,17.5,15.9,16.6,15,16.6z"/>
	<path class="st0" d="M9.5,19.9c0.4-0.3,0.6-0.8,0.6-1.4c0-1-0.8-1.8-1.8-1.8c-1,0-1.8,0.8-1.8,1.8h0.8c0-0.6,0.5-1,1-1
		c0.6,0,1,0.5,1,1s-0.5,1-1,1H7.9v0.8h0.4c0.8,0,1.4,0.6,1.4,1.4s-0.6,1.4-1.4,1.4c-0.8,0-1.4-0.6-1.4-1.4H6.1c0,1.2,1,2.2,2.2,2.2
		s2.2-1,2.2-2.2C10.5,20.9,10.1,20.2,9.5,19.9z"/>
</g>
</svg>
