<?xml version="1.0" encoding="utf-8"?>
<!-- Generator: Adobe Illustrator 16.0.0, SVG Export Plug-In . SVG Version: 6.00 Build 0)  -->
<!DOCTYPE svg PUBLIC "-//W3C//DTD SVG 1.1//EN" "http://www.w3.org/Graphics/SVG/1.1/DTD/svg11.dtd">
<svg version="1.1" id="Layer_1" xmlns="http://www.w3.org/2000/svg" xmlns:xlink="http://www.w3.org/1999/xlink" x="0px" y="0px"
	 width="65.5px" height="84px" viewBox="0 0 65.5 84" style="enable-background:new 0 0 65.5 84;" xml:space="preserve">
<path d="M39.5,12.2V0h-1.8v32.3c0,1.5,0.7,3.4,4.1,3.8c0,0,0.1,0,0.1,0c0.4,0,0.8-0.3,0.9-0.8c0.1-0.5-0.3-0.9-0.8-1
	c-2.3-0.3-2.5-1.2-2.5-2.1v-5.3l12.4,7.2l-19.1,11l-19.1-11l12.4-7.2v5.3c0,0.8-0.3,1.8-2.5,2.1c-0.5,0.1-0.8,0.5-0.8,1
	c0.1,0.4,0.4,0.8,0.9,0.8c0,0,0.1,0,0.1,0c3.4-0.4,4.1-2.3,4.1-3.8V0h-1.7v12.2L0,27.2v0.5v0.5V40v1v24.1L32.8,84l32.8-18.9V41v-1
	V28.2v-0.5v-0.5L39.5,12.2z M26.1,14.2v10.7l-14.2,8.2l-9.3-5.4L26.1,14.2z M1.8,29.2l8.4,4.9L1.8,39V29.2z M31.9,81.5L1.8,64.1V42
	l30.1,17.4V81.5z M31.9,57.4L2.6,40.5l9.3-5.4l20,11.5V57.4z M39.5,24.9V14.2l23.5,13.5l-9.3,5.4L39.5,24.9z M33.6,46.6l20-11.5
	l9.3,5.4L33.6,57.4V46.6z M63.8,64.1L33.6,81.5V59.4L63.8,42V64.1z M63.8,39l-8.4-4.9l8.4-4.9V39z"/>
</svg>
